<svg version="1" xmlns="http://www.w3.org/2000/svg" width="481.333" height="481.333" viewBox="0 0 361.000000 361.000000"><path d="M164.9.4c-.2.2-3 .6-6.1 1-12.2 1.2-32.1 6.3-44.8 11.3-15.3 6.1-36.4 18.5-48.5 28.5C53.6 51.1 40 66.3 31.5 79c-2.7 4.1-5.3 7.6-5.7 7.8-.5.2-.8.9-.8 1.6 0 .6-1.1 2.8-2.5 4.8S20 97.6 20 98.4c0 .8-.4 1.6-.8 1.8-1.1.4-7.4 15.7-10.5 25.3-6.5 20.2-8.5 34.9-8.1 58 .1 9.9.5 19.6.9 21.5 1.1 6.4 1.4 7.5 2.4 12.5.6 2.7 1.5 6.5 2 8.2.5 1.8.8 3.3.6 3.3-.2 0 .3 1.7 1.1 3.7.9 2 1.7 4.4 1.9 5.2.7 3.4 4.1 11.6 5 12.3.6.4.7.8.3.8-.7 0 2.3 7 5.2 12 .8 1.4 1.5 2.7 1.5 3 .1.7 5.8 10.4 6.5 11 .3.3 1.7 2.3 3 4.5 1.4 2.2 3 4.7 3.6 5.5 13.6 17.3 26.2 29.8 40.4 39.8 3.6 2.6 6.6 5 6.8 5.4.2.5 1.2.8 2.3.8 1 0 1.9.4 1.9 1 0 1.8 31.6 16.4 40.5 18.6.6.2 3.5 1 6.5 1.9 15.7 4.4 27.6 6 47 6 22 0 33.3-1.5 50.5-6.7 3.9-1.2 7.2-2.2 7.5-2.3 5.7-1.3 25.7-10.5 34.5-15.8 9.1-5.6 19.4-12.8 23.7-16.6 11-9.7 22.2-21.5 27.3-28.5 1.1-1.5 3-4 4.2-5.4 1.3-1.5 2.3-3.1 2.3-3.5 0-.7 3.9-6.6 5.1-7.7 1.1-1 10.7-20.6 13.3-27.2 2.7-6.9 9.7-30.3 9.4-31.6-.1-.4.2-2.3.5-4.2.4-1.9.9-5.1 1.3-7 1-5.8 1.3-37.1.4-42.5-.4-2.8-1-7.3-1.4-10.2-.3-2.8-1-6.3-1.5-7.6-.5-1.4-.7-2.7-.5-3 .3-.3.1-1.4-.5-2.5-.5-1-1.2-3.1-1.5-4.6-.7-3.8-3.5-12.7-4.7-14.8-.5-1-.9-2.3-.9-3 0-3.7-19.3-38.9-22.9-41.8-.3-.3-1.7-2.1-3.1-4-5.4-7.7-18.6-21.4-27.6-28.6-8.9-7.1-12.5-9.8-13.8-10.4-.6-.3-3.6-2.1-6.6-4.1-4.7-3.1-15.4-9-17-9.4-.3-.1-2.5-1.1-5-2.2-7.4-3.3-21-8-28.4-9.8-7.6-1.8-8.4-2-14.2-3-2.2-.4-5-.9-6.4-1.1-3.2-.6-38.6-1.5-39.1-1zM142 112.8c12.7 4.1 21 11.9 24.7 23.2 2.4 7.5 2.3 20.5-.2 28.5-2.4 7.5-11.3 20.7-20.5 30.5-3.9 4.1-11.9 12.9-17.8 19.5l-10.6 12 27.2.3c25 .2 27.2.4 27.3 2 .1.9.1 6.4.2 12.2l.1 10.5H74.5v-20.4l4.9-5.3c2.7-2.9 12.2-13 21.1-22.3 21.6-22.6 22.8-23.9 28-31.6 7.4-11 9.3-19.7 6-27.6-2.1-5-4.1-7-8.2-8.4-11.2-3.7-21.4 5.5-22.2 19.9-.1 1-3.7 1.2-16.3 1l-16.3-.3.3-3.5c1.8-19.8 16-36.1 36.2-41.4 8-2.1 25.6-1.5 34 1.2zm112.5-.3c18.6 6.2 28.1 17.3 29.2 34.3.4 6.3.1 8.7-1.7 13.5-2.4 6.4-10.2 15.2-15.8 17.8l-3.3 1.6 5.3 3.1c12.7 7.1 17.9 16 17.8 30.2 0 7-.7 10.5-3 15.7-4.2 9.6-13.7 17.5-26.2 22-6.5 2.3-8.9 2.6-21.3 2.7-14.9.1-19.2-.8-29.9-6.1-10.1-5.1-18.2-15.5-20.2-25.8-1.7-8.6-2.8-8 15.4-8.3 14.9-.2 16.2-.1 16.2 1.5 0 2.1 3.6 8.2 5.9 10.1 4.1 3.3 10.4 4.7 16.9 3.7 5-.7 11.4-5.9 13-10.4 1.6-4.5.7-13.5-1.7-17.4-3.4-5.5-7.8-7.1-21.3-7.5l-11.8-.4V168h10.3c12.1 0 17.8-2.1 21.1-8 2.7-4.6 2.7-14.1-.1-17.8-3.9-5.3-7-6.7-14.2-6.7-5.8 0-7.3.4-10.4 2.8-1.9 1.5-4.1 4.3-4.8 6.2l-1.3 3.5H187v-3.5c0-1.9 1-6 2.2-9.2 4-10.9 16.1-20.2 30.5-23.7 7.8-1.9 28-1.4 34.8.9z"/></svg>